<svg xmlns="http://www.w3.org/2000/svg" width="400" height="560" viewBox="0 0 400 560">
  <defs><filter id="paper-shadow"><feDropShadow dx="0" dy="2" stdDeviation="4" flood-color="#00000022"/></filter></defs>
  <rect x="20" y="10" width="360" height="540" rx="3" ry="3" fill="#FDFCF8" filter="url(#paper-shadow)"/>
  <rect x="20" y="10" width="360" height="540" rx="3" ry="3" fill="#EDE8D8" opacity="0.16"/>
  <rect x="20" y="10" width="360" height="72" rx="3" ry="3" fill="#E83D2A"/>
  <rect x="20" y="50" width="360" height="32" fill="#E83D2A"/>
  <text x="78" y="34" font-family="'Arial', sans-serif" font-size="13" font-weight="700" fill="#FFFFFF" letter-spacing="2">FOOD RECEIPT</text>
  <text x="78" y="51" font-family="'Arial', sans-serif" font-size="10" fill="#F4D090" letter-spacing="1">MUC AIRPORT BISTRO — ORDER SUMMARY</text>
  <text x="200" y="75" font-family="'Georgia', serif" font-size="12" font-weight="700" fill="#FFFFFF" text-anchor="middle" letter-spacing="0.5">MUC Airport Bistro</text>
  <line x1="30" y1="97" x2="370" y2="97" stroke="#DDD8C8" stroke-width="0.5" stroke-dasharray="4,3"/>
  <text x="40" y="116" font-family="'Arial', sans-serif" font-size="9" fill="#888880" letter-spacing="1">ORDER NO.</text>
  <text x="40" y="130" font-family="'Courier New', monospace" font-size="11" font-weight="700" fill="#2C2A27">MAB-MUC-20260309-5521</text>
  <text x="360" y="116" font-family="'Arial', sans-serif" font-size="9" fill="#888880" text-anchor="end" letter-spacing="1">DATE</text>
  <text x="360" y="130" font-family="'Arial', sans-serif" font-size="11" fill="#2C2A27" text-anchor="end">09 Mar 2026</text>
  <line x1="30" y1="142" x2="370" y2="142" stroke="#DDD8C8" stroke-width="0.5"/>
  <text x="40" y="158" font-family="'Arial', sans-serif" font-size="9" fill="#888880" letter-spacing="1">LOCATION</text>
  <text x="40" y="172" font-family="'Arial', sans-serif" font-size="11" fill="#2C2A27">Munich Airport Terminal 2</text>
  <line x1="30" y1="183" x2="370" y2="183" stroke="#DDD8C8" stroke-width="0.5"/>
  <text x="40" y="198" font-family="'Arial', sans-serif" font-size="9" font-weight="700" fill="#888880" letter-spacing="1">ITEM</text>
  <text x="360" y="198" font-family="'Arial', sans-serif" font-size="9" font-weight="700" fill="#888880" text-anchor="end" letter-spacing="1">AMOUNT</text>
  <line x1="30" y1="204" x2="370" y2="204" stroke="#DDD8C8" stroke-width="0.5"/>
  <text x="40" y="224" font-family="'Arial', sans-serif" font-size="11" fill="#2C2A27">Sausage & Bread, Beer x2, Coffee</text>
  <text x="360" y="224" font-family="'Courier New', monospace" font-size="11" fill="#2C2A27" text-anchor="end">€ 23.87</text>
  <text x="40" y="248" font-family="'Arial', sans-serif" font-size="11" fill="#2C2A27">Tax / Service Charge</text>
  <text x="360" y="248" font-family="'Courier New', monospace" font-size="11" fill="#2C2A27" text-anchor="end">€ 4.53</text>
  <line x1="30" y1="262" x2="370" y2="262" stroke="#DDD8C8" stroke-width="0.5" stroke-dasharray="4,3"/>
  <line x1="240" y1="280" x2="370" y2="280" stroke="#E83D2A" stroke-width="1"/>
  <rect x="240" y="285" width="130" height="26" rx="2" fill="#E83D2A" opacity="0.1"/>
  <text x="252" y="303" font-family="'Arial', sans-serif" font-size="11" font-weight="700" fill="#E83D2A">TOTAL PAID</text>
  <text x="358" y="303" font-family="'Courier New', monospace" font-size="12" font-weight="700" fill="#E83D2A" text-anchor="end">€28.40</text>
  <text x="40" y="302" font-family="'Arial', sans-serif" font-size="9" fill="#888880" letter-spacing="1">CURRENCY</text>
  <text x="40" y="316" font-family="'Arial', sans-serif" font-size="10" fill="#2C2A27">EUR</text>
  <text x="40" y="338" font-family="'Arial', sans-serif" font-size="9" fill="#888880" letter-spacing="1">PAYMENT METHOD</text>
  <text x="40" y="352" font-family="'Arial', sans-serif" font-size="10" fill="#2C2A27">Contactless / Corporate Card</text>
  <line x1="30" y1="366" x2="370" y2="366" stroke="#DDD8C8" stroke-width="0.5" stroke-dasharray="4,3"/>
  <text x="200" y="400" font-family="'Arial', sans-serif" font-size="8" fill="#AAAAAA" text-anchor="middle">MUC Airport Bistro</text>
  <text x="200" y="414" font-family="'Arial', sans-serif" font-size="8" fill="#AAAAAA" text-anchor="middle">Thank you for your order!</text>
  <path d="M 20 440 Q 30 434 40 440 Q 50 446 60 440 Q 70 434 80 440 Q 90 446 100 440 Q 110 434 120 440 Q 130 446 140 440 Q 150 434 160 440 Q 170 446 180 440 Q 190 434 200 440 Q 210 446 220 440 Q 230 434 240 440 Q 250 446 260 440 Q 270 434 280 440 Q 290 446 300 440 Q 310 434 320 440 Q 330 446 340 440 Q 350 434 360 440 Q 370 446 380 440" fill="none" stroke="#DDD8C8" stroke-width="1"/>
</svg>