<svg xmlns="http://www.w3.org/2000/svg" width="400" height="560" viewBox="0 0 400 560">
  <defs><filter id="paper-shadow"><feDropShadow dx="0" dy="2" stdDeviation="4" flood-color="#00000022"/></filter></defs>
  <rect x="20" y="10" width="360" height="540" rx="3" ry="3" fill="#F9F7F4" filter="url(#paper-shadow)"/>
  <rect x="20" y="10" width="360" height="540" rx="3" ry="3" fill="#EDE8E0" opacity="0.18"/>
  <!-- Lindner - warm orange/brown -->
  <rect x="20" y="10" width="360" height="72" rx="3" ry="3" fill="#8B4513"/>
  <rect x="20" y="50" width="360" height="32" fill="#8B4513"/>
  <rect x="38" y="22" width="28" height="38" rx="1" fill="none" stroke="#F5CBA7" stroke-width="1.5"/>
  <rect x="43" y="28" width="5" height="5" fill="#F5CBA7"/><rect x="52" y="28" width="5" height="5" fill="#F5CBA7"/>
  <rect x="43" y="38" width="5" height="5" fill="#F5CBA7"/><rect x="52" y="38" width="5" height="5" fill="#F5CBA7"/>
  <rect x="46" y="48" width="8" height="12" fill="#F5CBA7"/>
  <text x="78" y="34" font-family="'Arial', sans-serif" font-size="13" font-weight="700" fill="#FFFFFF" letter-spacing="2">HOTEL RECEIPT</text>
  <text x="78" y="52" font-family="'Arial', sans-serif" font-size="10" fill="#F5CBA7" letter-spacing="1">ACCOMMODATION — LINDNER HOTELS</text>
  <text x="200" y="76" font-family="'Georgia', serif" font-size="12" font-weight="700" fill="#FFFFFF" text-anchor="middle" letter-spacing="1">Lindner Airport Hotel Frankfurt</text>
  <line x1="30" y1="98" x2="370" y2="98" stroke="#D1C9BC" stroke-width="0.5" stroke-dasharray="4,3"/>
  <text x="40" y="118" font-family="'Arial', sans-serif" font-size="9" fill="#888880" letter-spacing="1">RECEIPT NUMBER</text>
  <text x="40" y="133" font-family="'Courier New', monospace" font-size="11" font-weight="700" fill="#2C2A27">LND-FRA-20260304-9918</text>
  <text x="360" y="133" font-family="'Arial', sans-serif" font-size="9" fill="#888880" text-anchor="end">INVOICE</text>
  <line x1="30" y1="143" x2="370" y2="143" stroke="#D1C9BC" stroke-width="0.5"/>
  <text x="40" y="160" font-family="'Arial', sans-serif" font-size="9" fill="#888880" letter-spacing="1">GUEST NAME</text>
  <text x="40" y="174" font-family="'Arial', sans-serif" font-size="11" fill="#2C2A27">Corporate Guest</text>
  <text x="240" y="160" font-family="'Arial', sans-serif" font-size="9" fill="#888880" letter-spacing="1">ROOM TYPE</text>
  <text x="240" y="174" font-family="'Arial', sans-serif" font-size="11" fill="#2C2A27">Business Room</text>
  <text x="40" y="193" font-family="'Arial', sans-serif" font-size="9" fill="#888880" letter-spacing="1">CHECK-IN</text>
  <text x="40" y="207" font-family="'Arial', sans-serif" font-size="11" fill="#2C2A27">04 Mar 2026</text>
  <text x="160" y="193" font-family="'Arial', sans-serif" font-size="9" fill="#888880" letter-spacing="1">CHECK-OUT</text>
  <text x="160" y="207" font-family="'Arial', sans-serif" font-size="11" fill="#2C2A27">05 Mar 2026</text>
  <text x="300" y="193" font-family="'Arial', sans-serif" font-size="9" fill="#888880" letter-spacing="1">NIGHTS</text>
  <text x="300" y="207" font-family="'Arial', sans-serif" font-size="11" fill="#2C2A27">1</text>
  <line x1="30" y1="218" x2="370" y2="218" stroke="#D1C9BC" stroke-width="0.5"/>
  <text x="40" y="234" font-family="'Arial', sans-serif" font-size="9" font-weight="700" fill="#888880" letter-spacing="1">DESCRIPTION</text>
  <text x="360" y="234" font-family="'Arial', sans-serif" font-size="9" font-weight="700" fill="#888880" text-anchor="end" letter-spacing="1">AMOUNT (EUR)</text>
  <line x1="30" y1="240" x2="370" y2="240" stroke="#D1C9BC" stroke-width="0.5"/>
  <text x="40" y="258" font-family="'Arial', sans-serif" font-size="11" fill="#2C2A27">Room Charge incl. Breakfast (1 nt)</text>
  <text x="360" y="258" font-family="'Courier New', monospace" font-size="11" fill="#2C2A27" text-anchor="end">€ 149.58</text>
  <text x="40" y="276" font-family="'Arial', sans-serif" font-size="11" fill="#2C2A27">VAT (19%)</text>
  <text x="360" y="276" font-family="'Courier New', monospace" font-size="11" fill="#2C2A27" text-anchor="end">€  28.42</text>
  <line x1="30" y1="290" x2="370" y2="290" stroke="#D1C9BC" stroke-width="0.5" stroke-dasharray="4,3"/>
  <line x1="240" y1="310" x2="370" y2="310" stroke="#8B4513" stroke-width="1"/>
  <rect x="240" y="315" width="130" height="26" rx="2" fill="#8B4513" opacity="0.08"/>
  <text x="252" y="333" font-family="'Arial', sans-serif" font-size="11" font-weight="700" fill="#8B4513">TOTAL PAID</text>
  <text x="358" y="333" font-family="'Courier New', monospace" font-size="12" font-weight="700" fill="#8B4513" text-anchor="end">€ 178.00</text>
  <text x="40" y="332" font-family="'Arial', sans-serif" font-size="9" fill="#888880" letter-spacing="1">CURRENCY</text>
  <text x="40" y="346" font-family="'Arial', sans-serif" font-size="10" fill="#2C2A27">EUR — Euro</text>
  <text x="40" y="368" font-family="'Arial', sans-serif" font-size="9" fill="#888880" letter-spacing="1">BREAKFAST INCLUDED</text>
  <text x="40" y="382" font-family="'Arial', sans-serif" font-size="10" fill="#2C2A27">Yes — served 06:30–10:30 daily</text>
  <text x="40" y="400" font-family="'Arial', sans-serif" font-size="9" fill="#888880" letter-spacing="1">PAYMENT METHOD</text>
  <text x="40" y="414" font-family="'Arial', sans-serif" font-size="10" fill="#2C2A27">Corporate Card •••• 4291</text>
  <line x1="30" y1="428" x2="370" y2="428" stroke="#D1C9BC" stroke-width="0.5" stroke-dasharray="4,3"/>
  <text x="40" y="448" font-family="'Arial', sans-serif" font-size="9" fill="#888880" letter-spacing="1">PROPERTY ADDRESS</text>
  <text x="40" y="462" font-family="'Arial', sans-serif" font-size="10" fill="#2C2A27">Unterschweinstiege 12, 60549 Frankfurt am Main</text>
  <text x="40" y="477" font-family="'Arial', sans-serif" font-size="9" fill="#888880">Tel: +49 69 870770  |  USt-IdNr: DE 114 235 077</text>
  <line x1="30" y1="490" x2="370" y2="490" stroke="#D1C9BC" stroke-width="0.5" stroke-dasharray="4,3"/>
  <text x="200" y="507" font-family="'Arial', sans-serif" font-size="8" fill="#AAAAAA" text-anchor="middle">Lindner Airport Hotel Frankfurt — Frankfurt, Germany</text>
  <text x="200" y="520" font-family="'Arial', sans-serif" font-size="8" fill="#AAAAAA" text-anchor="middle">www.lindner.de  |  Lindner Hotel Group</text>
  <text x="200" y="533" font-family="'Arial', sans-serif" font-size="8" fill="#AAAAAA" text-anchor="middle">This is a computer-generated receipt and does not require a signature.</text>
  <rect x="156" y="546" width="4" height="8" fill="#CCCCCC"/>
  <rect x="162" y="546" width="2" height="8" fill="#CCCCCC"/>
  <rect x="166" y="546" width="6" height="8" fill="#CCCCCC"/>
</svg>
